<?xml version="1.0" encoding="utf-8"?>
<!-- Generator: Adobe Illustrator 21.1.0, SVG Export Plug-In . SVG Version: 6.00 Build 0)  -->
<svg version="1.1" id="Слой_1" xmlns="http://www.w3.org/2000/svg" xmlns:xlink="http://www.w3.org/1999/xlink" x="0px" y="0px"
	 viewBox="0 0 128 128" style="enable-background:new 0 0 128 128;" xml:space="preserve">
<style type="text/css">
	.st01{fill:url(#SVGID_11_);}
	.st11{fill:url(#SVGID_21_);}
	.st21{fill:url(#SVGID_31_);}
	.st31{fill:url(#SVGID_41_);}
</style>
<g>
	<linearGradient id="SVGID_11_" gradientUnits="userSpaceOnUse" x1="33.6126" y1="71.585" x2="97.6126" y2="71.585">
		<stop  offset="0" style="stop-color:#C424FF"/>
		<stop  offset="0.1157" style="stop-color:#BB28FF"/>
		<stop  offset="0.3083" style="stop-color:#A133FF"/>
		<stop  offset="0.5539" style="stop-color:#7844FF"/>
		<stop  offset="0.84" style="stop-color:#3F5DFF"/>
		<stop  offset="0.9944" style="stop-color:#1D6BFF"/>
	</linearGradient>
	<path class="st01" d="M33.7,60.8c0.2,0.1,0.3,0.2,0.5,0.3c6.1,3.5,12.3,7.1,18.4,10.6c0,0,0.1,0.1,0.1,0.1c0.2,0.2,0.4,0.1,0.6,0
		c0.9-0.5,1.7-1,2.6-1.5C68.5,63,81.1,55.8,93.6,48.5c0.1-0.1,0.3-0.2,0.4-0.2c1,1,3,7.4,3.3,10.6c0.9,7.9-0.8,15.3-5.3,21.9
		c-8.8,13-25.6,17.6-39.7,11.2C37.8,85.3,32.8,71,33.7,60.8z"/>
	<linearGradient id="SVGID_21_" gradientUnits="userSpaceOnUse" x1="34.2053" y1="55.0891" x2="92.2608" y2="55.0891">
		<stop  offset="0" style="stop-color:#C424FF"/>
		<stop  offset="0.1157" style="stop-color:#BB28FF"/>
		<stop  offset="0.3083" style="stop-color:#A133FF"/>
		<stop  offset="0.5539" style="stop-color:#7844FF"/>
		<stop  offset="0.84" style="stop-color:#3F5DFF"/>
		<stop  offset="0.9944" style="stop-color:#1D6BFF"/>
	</linearGradient>
	<path class="st11" d="M90.3,42.4c0.7,0.9,1.3,1.8,2,2.6c0,0.1,0,0.1,0,0.1c0,0,0,0,0,0c0,0-0.1,0.1-0.1,0.1c-13,7.5-26,15-39.1,22.5
		c-6.3-3.6-12.6-7.2-18.8-10.8c0-0.6,0.6-2.9,0.8-3.4c0.1,0.1,0.2,0.1,0.4,0.2c5.7,3.3,11.5,6.6,17.2,9.9c0,0,0.1,0,0.1,0.1
		c0.2,0.2,0.4,0.1,0.6,0c1.3-0.8,2.7-1.6,4.1-2.3c10.8-6.2,21.7-12.5,32.5-18.7C90,42.6,90.1,42.5,90.3,42.4z"/>
	<linearGradient id="SVGID_31_" gradientUnits="userSpaceOnUse" x1="36.2331" y1="48.4918" x2="87.759" y2="48.4918">
		<stop  offset="0" style="stop-color:#C424FF"/>
		<stop  offset="0.1157" style="stop-color:#BB28FF"/>
		<stop  offset="0.3083" style="stop-color:#A133FF"/>
		<stop  offset="0.5539" style="stop-color:#7844FF"/>
		<stop  offset="0.84" style="stop-color:#3F5DFF"/>
		<stop  offset="0.9944" style="stop-color:#1D6BFF"/>
	</linearGradient>
	<path class="st21" d="M36.2,50c0.5-1,1-2,1.5-3c0.2,0.1,0.3,0.2,0.5,0.3c4.7,2.7,9.4,5.4,14.1,8.1c0.8,0.5,0.5,0.5,1.4,0
		c10.3-5.9,20.6-11.9,31-17.8c0.1-0.1,0.2-0.1,0.4-0.2c0.9,0.7,1.8,1.5,2.7,2.3c-0.1,0.1-0.3,0.2-0.4,0.2c-7.9,4.5-15.7,9-23.6,13.6
		c-3.4,2-6.9,4-10.3,5.9c-0.3,0.2-0.5,0.2-0.8,0c-5.3-3.1-10.7-6.1-16-9.2C36.5,50.2,36.4,50.1,36.2,50z"/>
	<linearGradient id="SVGID_41_" gradientUnits="userSpaceOnUse" x1="39.7424" y1="42.4631" x2="81.6727" y2="42.4631">
		<stop  offset="0" style="stop-color:#C424FF"/>
		<stop  offset="0.1157" style="stop-color:#BB28FF"/>
		<stop  offset="0.3083" style="stop-color:#A133FF"/>
		<stop  offset="0.5539" style="stop-color:#7844FF"/>
		<stop  offset="0.84" style="stop-color:#3F5DFF"/>
		<stop  offset="0.9944" style="stop-color:#1D6BFF"/>
	</linearGradient>
	<path class="st31" d="M81.7,35.2c-0.2,0.1-0.3,0.2-0.4,0.2c-9.3,5.3-18.6,10.7-27.8,16c-0.3,0.2-0.5,0.2-0.8,0
		c-4.1-2.4-8.3-4.8-12.4-7.2c-0.1-0.1-0.3-0.2-0.5-0.3c0.7-0.9,1.4-1.8,2.2-2.7c0.2,0.1,0.3,0.1,0.4,0.2c3.2,1.9,6.5,3.7,9.7,5.6
		c0.2,0.1,0.5,0.3,0.7,0.4c0.2,0.1,0.4,0.1,0.6,0c1.7-1,3.3-1.9,5-2.9c6.5-3.7,12.9-7.4,19.4-11.2c0.2-0.1,0.4-0.2,0.6,0
		c1,0.5,2,1,3.1,1.5C81.5,35,81.6,35.1,81.7,35.2z"/>
</g>
</svg>
