<?xml version="1.0" encoding="utf-8"?>
<!-- Generator: Adobe Illustrator 21.1.0, SVG Export Plug-In . SVG Version: 6.00 Build 0)  -->
<svg version="1.1" id="Слой_1" xmlns="http://www.w3.org/2000/svg" xmlns:xlink="http://www.w3.org/1999/xlink" x="0px" y="0px"
	 viewBox="0 0 128 128" style="enable-background:new 0 0 128 128;" xml:space="preserve">
<style type="text/css">
	.st0{fill:url(#SVGID_1_);}
	.st1{fill:url(#SVGID_2_);}
	.st2{fill:url(#SVGID_3_);}
</style>
<g>
	<linearGradient id="SVGID_1_" gradientUnits="userSpaceOnUse" x1="32.444" y1="64.109" x2="96.444" y2="64.109">
		<stop  offset="0" style="stop-color:#C424FF"/>
		<stop  offset="0.1157" style="stop-color:#BB28FF"/>
		<stop  offset="0.3083" style="stop-color:#A133FF"/>
		<stop  offset="0.5539" style="stop-color:#7844FF"/>
		<stop  offset="0.84" style="stop-color:#3F5DFF"/>
		<stop  offset="0.9944" style="stop-color:#1D6BFF"/>
	</linearGradient>
	<path class="st0" d="M64.5,32.1c-16.9-0.1-31.9,13.4-32,31.7c-0.2,17.7,13.8,31.8,31.2,32.3c17.8,0.5,32.7-13.5,32.8-31.8
		C96.5,46.3,82.1,32.1,64.5,32.1z M74.7,65.1c2.7,1.7,3.6,4,2.8,7c-0.5,2-1.3,3.8-3.1,5c-1.1,0.7-2.4,1.1-3.7,1.2
		c-0.5,0-1,0.1-1.4,0.1c-1.3-0.1-2.5-0.2-3.7-0.4c-0.6-0.1-0.8,0.1-0.9,0.6c-0.3,1.5-0.7,2.9-1.1,4.4c-0.1,0.6-0.4,0.7-0.9,0.5
		c-0.7-0.2-1.4-0.4-2.2-0.5c-0.4-0.1-0.5-0.3-0.4-0.7c0.4-1.5,0.7-3,1.1-4.4c0.2-0.6,0-0.8-0.6-0.9c-0.5-0.1-1.1-0.3-1.6-0.4
		c-0.4-0.1-0.6,0-0.7,0.4c-0.4,1.5-0.8,3-1.1,4.5c-0.1,0.6-0.4,0.7-0.9,0.5c-0.6-0.2-1.3-0.4-2-0.5c-0.5-0.1-0.7-0.3-0.6-0.9
		c0.4-1.5,0.7-3,1.1-4.5c0.1-0.5,0-0.7-0.5-0.8c-1.9-0.5-3.8-1-5.8-1.4c-0.5-0.1-0.7-0.3-0.4-0.8c0.4-0.9,0.8-1.7,1.1-2.6
		c0.2-0.6,0.5-0.7,1.1-0.5c0.5,0.2,1.1,0.3,1.6,0.4c1,0.2,1.6-0.1,1.9-1.2c0.6-2.2,1.1-4.3,1.6-6.5c0.7-2.8,1.4-5.7,2.1-8.5
		c0.3-1.3-0.1-2.1-1.3-2.5c-0.7-0.2-1.4-0.4-2.1-0.6c-0.5-0.1-0.6-0.3-0.4-0.7c0.2-0.8,0.4-1.6,0.6-2.5c0.1-0.5,0.3-0.6,0.8-0.5
		c1.9,0.5,3.8,0.9,5.6,1.4c0.6,0.2,0.9,0,1-0.6c0.3-1.4,0.7-2.8,1-4.3c0.1-0.5,0.4-0.7,0.9-0.5c0.7,0.2,1.4,0.4,2.2,0.5
		c0.4,0.1,0.5,0.3,0.4,0.7c-0.4,1.5-0.7,2.9-1.1,4.4c-0.1,0.5,0,0.8,0.5,0.9c0.5,0.1,1.1,0.2,1.6,0.4c0.5,0.2,0.7-0.1,0.8-0.5
		c0.3-1.4,0.7-2.8,1-4.3c0.1-0.5,0.4-0.7,0.9-0.5c0.7,0.2,1.4,0.4,2.1,0.5c0.5,0.1,0.6,0.3,0.5,0.8c-0.4,1.5-0.7,2.9-1.1,4.4
		c-0.2,0.6,0,0.9,0.6,1.1c1.7,0.6,3.2,1.4,4.6,2.6c3.3,2.9,1.8,9-2,10c-0.2,0-0.5,0-0.5,0.3C74.2,65,74.5,65,74.7,65.1z"/>
	<linearGradient id="SVGID_2_" gradientUnits="userSpaceOnUse" x1="59.7624" y1="68.9386" x2="70.6601" y2="68.9386">
		<stop  offset="0" style="stop-color:#C424FF"/>
		<stop  offset="0.1157" style="stop-color:#BB28FF"/>
		<stop  offset="0.3083" style="stop-color:#A133FF"/>
		<stop  offset="0.5539" style="stop-color:#7844FF"/>
		<stop  offset="0.84" style="stop-color:#3F5DFF"/>
		<stop  offset="0.9944" style="stop-color:#1D6BFF"/>
	</linearGradient>
	<path class="st1" d="M67.9,66.3c-1.8-0.9-3.8-1.4-5.8-1.8c-0.4-0.1-0.5,0.1-0.6,0.4c-0.6,2.2-1.1,4.5-1.7,6.7
		c-0.1,0.4,0,0.6,0.4,0.7c1.9,0.5,3.9,1,6.1,1c0.6,0,1.4,0,2.2-0.3c2.2-0.8,2.9-3.6,1.3-5.3C69.2,67.1,68.6,66.7,67.9,66.3z"/>
	<linearGradient id="SVGID_3_" gradientUnits="userSpaceOnUse" x1="62.5568" y1="57.9627" x2="71.7432" y2="57.9627">
		<stop  offset="0" style="stop-color:#C424FF"/>
		<stop  offset="0.1157" style="stop-color:#BB28FF"/>
		<stop  offset="0.3083" style="stop-color:#A133FF"/>
		<stop  offset="0.5539" style="stop-color:#7844FF"/>
		<stop  offset="0.84" style="stop-color:#3F5DFF"/>
		<stop  offset="0.9944" style="stop-color:#1D6BFF"/>
	</linearGradient>
	<path class="st2" d="M70,55.8c-1.6-1-3.4-1.4-5.3-1.8c-0.3-0.1-0.5,0-0.6,0.4c-0.5,2-1,4.1-1.5,6.1c-0.1,0.3,0,0.5,0.3,0.6
		c1.6,0.4,3.2,0.8,5,0.9c0.1,0,0.4-0.1,0.7-0.1c1.6-0.2,2.6-1,3-2.5C72,58,71.4,56.7,70,55.8z"/>
</g>
</svg>
