<?xml version="1.0" encoding="utf-8"?>
<!-- Generator: Adobe Illustrator 21.1.0, SVG Export Plug-In . SVG Version: 6.00 Build 0)  -->
<svg version="1.1" id="Слой_1" xmlns="http://www.w3.org/2000/svg" xmlns:xlink="http://www.w3.org/1999/xlink" x="0px" y="0px"
	 viewBox="0 0 128 128" style="enable-background:new 0 0 128 128;" xml:space="preserve">
<style type="text/css">
	.st0{fill:url(#SVGID_1_);}
</style>
<linearGradient id="SVGID_1_" gradientUnits="userSpaceOnUse" x1="25.8728" y1="63.9709" x2="102.0032" y2="63.9709">
	<stop  offset="0" style="stop-color:#C424FF"/>
	<stop  offset="0.1157" style="stop-color:#BB28FF"/>
	<stop  offset="0.3083" style="stop-color:#A133FF"/>
	<stop  offset="0.5539" style="stop-color:#7844FF"/>
	<stop  offset="0.84" style="stop-color:#3F5DFF"/>
	<stop  offset="0.9944" style="stop-color:#1D6BFF"/>
</linearGradient>
<path class="st0" d="M89.2,52.5c1.7,0,3.2,0,4.8,0c1.2,0,2.1,0.4,2.7,1.4c1.5,2.4,3.1,4.7,4.7,7.1c0.9,1.4,0.8,2.7-0.5,3.8
	C92.5,72.2,84,79.5,75.6,86.9c-0.8,0.7-1.6,1-2.7,1c-6.3,0-12.6,0-18.9,0c-1.2,0-2.2-0.2-3-1.3c-1,1.4-2.4,1.3-3.9,1.3
	c-6.1,0-12.1,0-18.2,0c-2.4,0-3.6-1.6-2.8-3.8c1.2-3.7,2.4-7.3,3.7-10.9c0.3-0.7,0.7-1.4,1.3-2c3.7-3.3,7.4-6.5,11.1-9.8
	c0.2-0.2,0.5-0.4,0.6-0.7c0.3-1.1,1.1-1.8,1.9-2.5c6.5-5.6,12.9-11.3,19.3-16.9c1-0.9,2-1.3,3.4-1.3c4.9,0.1,9.9,0,14.8,0
	c1.2,0,2.1,0.5,2.8,1.5c1.4,2.2,2.9,4.4,4.4,6.6C90.6,49.9,90.6,50.6,89.2,52.5z M45.3,70.1c0.1,0.1,0.1,0.1,0.2,0.1c5,0,10,0,15,0
	c0.5,0,0.6-0.3,0.5-0.7c-0.2-1.5-0.2-3-0.5-4.5c-0.3-1.7,0.2-2.9,1.6-4c6.1-5,12.2-10,18.2-15c0.2-0.1,0.4-0.2,0.6-0.4
	c-0.3-0.2-0.4-0.2-0.5-0.2c-4.1,0-8.3,0-12.4,0c-0.3,0-0.7,0.2-1,0.4c-6.3,5.5-12.6,11-18.8,16.5c-0.2,0.2-0.4,0.4-0.5,0.6
	C46.9,65.3,46.1,67.6,45.3,70.1z M92.5,58c0-0.1,0-0.1-0.1-0.2c-0.3,0-0.6,0-0.9,0c-2.5,0-5,0-7.5,0c-0.8,0-1.3,0.2-1.9,0.7
	c-5.7,5-11.5,10-17.2,15.1c-1.5,1.3-2.9,2.2-5,1.9c-0.5-0.1-0.7,0.2-0.9,0.6c-0.6,2-1.3,3.9-1.9,5.8c-0.1,0.2-0.1,0.4-0.1,0.6
	c5.3,0,10.5,0,15.7,0c-0.2-2-0.3-3.9-0.6-5.8c-0.2-1.3,0.2-2.3,1.3-3.1c4-3.2,7.9-6.5,11.8-9.7C87.7,61.9,90.1,60,92.5,58z
	 M32.2,82.6c3.4,0,6.6,0,9.8,0c1.7,0,3.5,0,5.2,0c0.4,0,0.8,0,0.7-0.6c-0.2-2.1-0.4-4.3-0.7-6.5c-0.3,0-0.6,0-0.9,0
	c-1.6,0-3.2,0-4.7,0c-1.9,0-3-1.6-2.5-3.4c0.1-0.3,0.2-0.6,0.3-0.8c-1.6,1.2-3.1,2.5-4.5,3.8c-0.1,0.1-0.1,0.1-0.1,0.2
	C33.8,77.6,33,80.1,32.2,82.6z"/>
</svg>
