<svg xmlns="http://www.w3.org/2000/svg" xmlns:xlink="http://www.w3.org/1999/xlink" width="0" height="0" style="position:absolute">
    <symbol  viewBox="0 0 160 160" id="logo">
		<style type="text/css">
			.st0{fill:none;}
			.st1{fill:url(#SVGID_1_);}
			.st2{fill:#C1272D;}
			.st3{fill:url(#SVGID_2_);}
			.st4{fill:url(#SVGID_3_);}
			.st5{fill:url(#SVGID_4_);}
			.st6{fill:url(#SVGID_5_);}
			.st7{fill:url(#SVGID_6_);}
			.st8{fill:url(#SVGID_7_);}
			.st9{fill:#FFFFFF;}
		</style>
		<g>
			<g>
				<g>

					<rect x="62.8" y="47.8" transform="matrix(0.7071 -0.7071 0.7071 0.7071 -19.035 67.2748)" class="st0" width="17.7" height="17.7"/>
					<linearGradient id="SVGID_1_" gradientUnits="userSpaceOnUse" x1="38.0776" y1="46.0677" x2="84.2096" y2="46.0677">
						<stop  offset="0" style="stop-color:#3EC3FB"/>
						<stop  offset="1" style="stop-color:#65E7F4"/>
					</linearGradient>
					<path class="st1" d="M78.4,25.8c-3.7-3.7-9.7-3.7-13.4,0l-5.8,5.8L46.7,44.1l-5.8,5.8c-3.7,3.7-3.7,9.7,0,13.4l5.8,5.8l12.5-12.5
				l12.5-12.5l12.5-12.5L78.4,25.8z"/>

					<rect x="75.4" y="60.3" transform="matrix(0.7071 -0.7071 0.7071 0.7071 -24.22 79.7925)" class="st2" width="17.7" height="17.7"/>

					<rect x="75.4" y="35.2" transform="matrix(0.7071 -0.7071 0.7071 0.7071 -6.5159 72.4604)" class="st2" width="17.7" height="17.7"/>
					<linearGradient id="SVGID_2_" gradientUnits="userSpaceOnUse" x1="46.6535" y1="73.4219" x2="84.2065" y2="73.4219">
						<stop  offset="0" style="stop-color:#8D31FE"/>
						<stop  offset="1" style="stop-color:#8D88FF"/>
					</linearGradient>
					<path class="st3" d="M71.7,69.1L59.2,56.6L46.7,69.1l12.5,12.5l5.8,5.8c3.7,3.7,9.7,3.7,13.4,0l5.8-5.8L71.7,69.1z"/>
				</g>
				<g>

					<rect x="87.9" y="47.8" transform="matrix(0.7071 -0.7071 0.7071 0.7071 -11.7008 84.9781)" class="st0" width="17.7" height="17.7"/>
					<linearGradient id="SVGID_3_" gradientUnits="userSpaceOnUse" x1="96.7257" y1="90.226" x2="96.7257" y2="69.1324">
						<stop  offset="0" style="stop-color:#8D31FE"/>
						<stop  offset="1" style="stop-color:#8D88FF"/>
					</linearGradient>
					<path class="st4" d="M84.2,81.7l5.8,5.8c3.7,3.7,9.7,3.7,13.4,0l5.8-5.8L96.7,69.1L84.2,81.7z"/>
					<linearGradient id="SVGID_4_" gradientUnits="userSpaceOnUse" x1="84.2096" y1="31.5764" x2="84.2096" y2="56.6147">
						<stop  offset="0" style="stop-color:#6C4DFF"/>
						<stop  offset="1" style="stop-color:#6E7CFC"/>
					</linearGradient>
					<polygon class="st5" points="96.7,44.1 84.2,31.6 71.7,44.1 84.2,56.6 			"/>
					<linearGradient id="SVGID_5_" gradientUnits="userSpaceOnUse" x1="96.8405" y1="69.1309" x2="121.3141" y2="69.1309">
						<stop  offset="0" style="stop-color:#6C4DFF"/>
						<stop  offset="1" style="stop-color:#6E7CFC"/>
					</linearGradient>
					<polygon class="st6" points="96.7,69.1 109.2,81.7 121.8,69.1 109.2,56.6 			"/>
					<linearGradient id="SVGID_6_" gradientUnits="userSpaceOnUse" x1="102.9876" y1="56.6117" x2="102.9876" y2="23">
						<stop  offset="0" style="stop-color:#8D31FE"/>
						<stop  offset="1" style="stop-color:#8D88FF"/>
					</linearGradient>
					<path class="st7" d="M109.2,31.6l-5.8-5.8c-3.7-3.7-9.7-3.7-13.4,0l-5.8,5.8l12.5,12.5l12.5,12.5l12.5-12.5L109.2,31.6z"/>
					<linearGradient id="SVGID_7_" gradientUnits="userSpaceOnUse" x1="84.208" y1="81.7002" x2="84.208" y2="57.1421">
						<stop  offset="0" style="stop-color:#6C4DFF"/>
						<stop  offset="1" style="stop-color:#6E7CFC"/>
					</linearGradient>
					<polygon class="st8" points="84.2,56.6 71.7,69.1 84.2,81.7 96.7,69.1 			"/>
				</g>
			</g>
			<g>
				<path class="st9" d="M18.3,112.4c0-3.2,2.4-5.4,5.6-5.4c2.5,0,3.8,1.4,4.5,2.8l-2.3,1.1c-0.3-0.8-1.2-1.5-2.2-1.5
			c-1.7,0-2.9,1.3-2.9,3s1.2,3,2.9,3c1,0,1.9-0.7,2.2-1.5l2.3,1.1c-0.7,1.3-2,2.8-4.5,2.8C20.7,117.8,18.3,115.6,18.3,112.4z"/>
				<path class="st9" d="M29.5,117.6v-7.5h2.4v0.9c0.5-0.6,1.4-1.1,2.3-1.1v2.3c-0.1,0-0.3-0.1-0.6-0.1c-0.6,0-1.4,0.3-1.8,0.7v4.8
			H29.5z"/>
				<path class="st9" d="M35.5,118.4c0.2,0.1,0.4,0.1,0.6,0.1c0.5,0,0.9-0.1,1-0.4l0.2-0.4l-3-7.6h2.5l1.7,4.7l1.7-4.7h2.5l-3.4,8.6
			c-0.6,1.6-1.7,1.9-3.2,2c-0.2,0-0.8,0-1-0.1L35.5,118.4z"/>
				<path class="st9" d="M45.9,116.7v3.7h-2.4v-10.4h2.4v0.9c0.6-0.7,1.4-1.1,2.2-1.1c1.9,0,3.3,1.4,3.3,3.9c0,2.5-1.4,3.9-3.3,3.9
			C47.2,117.8,46.5,117.5,45.9,116.7z M48.9,113.9c0-1.1-0.7-1.8-1.6-1.8c-0.5,0-1.1,0.3-1.4,0.7v2.3c0.3,0.4,0.9,0.7,1.4,0.7
			C48.2,115.7,48.9,115,48.9,113.9z"/>
				<path class="st9" d="M53.1,115.6v-3.4h-1.2v-2.1h1.2v-2h2.4v2H57v2.1h-1.5v2.7c0,0.4,0.2,0.8,0.7,0.8c0.3,0,0.5-0.1,0.6-0.2
			l0.5,1.8c-0.3,0.3-0.9,0.5-1.8,0.5C53.9,117.8,53.1,117,53.1,115.6z"/>
				<path class="st9" d="M57.7,113.9c0-2.1,1.5-3.9,4.1-3.9c2.6,0,4.1,1.8,4.1,3.9c0,2.1-1.5,3.9-4.1,3.9
			C59.2,117.8,57.7,116,57.7,113.9z M63.4,113.9c0-1-0.6-1.8-1.6-1.8c-1,0-1.6,0.8-1.6,1.8c0,1,0.6,1.8,1.6,1.8
			C62.8,115.7,63.4,114.9,63.4,113.9z"/>
				<path class="st9" d="M80.3,117.6v-7.7l-3.2,7.7h-0.8l-3.2-7.7v7.7h-1.8v-10.4h2.6l2.8,6.8l2.8-6.8h2.6v10.4H80.3z"/>
				<path class="st9" d="M84,108.2c0-0.6,0.5-1,1-1c0.6,0,1,0.4,1,1s-0.5,1-1,1C84.5,109.2,84,108.8,84,108.2z M84.3,117.6v-7.5h1.6
			v7.5H84.3z"/>
				<path class="st9" d="M88,117.6v-10.4h1.6v10.4H88z"/>
				<path class="st9" d="M91.7,117.6v-10.4h1.6v10.4H91.7z"/>
				<path class="st9" d="M95.3,108.2c0-0.6,0.5-1,1-1c0.6,0,1,0.4,1,1s-0.5,1-1,1C95.7,109.2,95.3,108.8,95.3,108.2z M95.5,117.6v-7.5
			h1.6v7.5H95.5z"/>
				<path class="st9" d="M98.7,113.9c0-2.1,1.5-3.9,3.8-3.9c2.4,0,3.9,1.8,3.9,3.9c0,2.2-1.5,3.9-3.9,3.9
			C100.2,117.8,98.7,116,98.7,113.9z M104.8,113.9c0-1.3-0.8-2.5-2.2-2.5c-1.4,0-2.2,1.2-2.2,2.5c0,1.3,0.8,2.5,2.2,2.5
			C104,116.4,104.8,115.2,104.8,113.9z"/>
				<path class="st9" d="M113.2,117.6v-4.7c0-1.2-0.6-1.6-1.5-1.6c-0.8,0-1.6,0.5-1.9,1v5.2h-1.6v-7.5h1.6v1c0.5-0.6,1.5-1.2,2.6-1.2
			c1.6,0,2.4,0.9,2.4,2.4v5.3H113.2z"/>
				<path class="st9" d="M121.5,117.6v-0.8c-0.6,0.6-1.4,1-2.4,1c-1.2,0-2.6-0.8-2.6-2.5c0-1.7,1.4-2.4,2.6-2.4c1,0,1.9,0.3,2.4,1
			v-1.1c0-0.9-0.7-1.4-1.8-1.4c-0.8,0-1.6,0.3-2.2,0.9l-0.7-1.1c0.9-0.8,2-1.2,3.2-1.2c1.7,0,3.1,0.7,3.1,2.7v5H121.5z M121.5,115.9
			v-1.1c-0.4-0.5-1.1-0.8-1.8-0.8c-0.9,0-1.6,0.5-1.6,1.4c0,0.8,0.7,1.3,1.6,1.3C120.4,116.7,121.1,116.4,121.5,115.9z"/>
				<path class="st9" d="M125,108.2c0-0.6,0.5-1,1-1c0.6,0,1,0.4,1,1s-0.5,1-1,1C125.5,109.2,125,108.8,125,108.2z M125.2,117.6v-7.5
			h1.6v7.5H125.2z"/>
				<path class="st9" d="M129,117.6v-7.5h1.6v1.1c0.6-0.7,1.5-1.3,2.4-1.3v1.6c-0.1,0-0.3,0-0.5,0c-0.7,0-1.6,0.5-1.9,1v5.1H129z"/>
				<path class="st9" d="M133.9,113.9c0-2.2,1.6-3.9,3.8-3.9c2.3,0,3.7,1.7,3.7,4.1v0.4h-5.8c0.1,1.1,1,2.1,2.4,2.1
			c0.7,0,1.6-0.3,2.1-0.8l0.7,1.1c-0.7,0.7-1.8,1.1-3,1.1C135.5,117.8,133.9,116.2,133.9,113.9z M137.7,111.3c-1.4,0-2,1.1-2.1,2
			h4.2C139.8,112.4,139.2,111.3,137.7,111.3z"/>
				<path class="st9" d="M63.4,136.2v-10.4h7.1v1.6h-5.3v2.7h5.2v1.6h-5.2v4.5H63.4z"/>
				<path class="st9" d="M77.1,136.2v-1c-0.5,0.6-1.5,1.2-2.7,1.2c-1.6,0-2.4-0.8-2.4-2.4v-5.3h1.6v4.7c0,1.2,0.6,1.5,1.5,1.5
			c0.8,0,1.5-0.5,1.9-1v-5.3h1.6v7.5H77.1z"/>
				<path class="st9" d="M85.9,136.2v-4.7c0-1.2-0.6-1.6-1.5-1.6c-0.8,0-1.6,0.5-1.9,1v5.2h-1.6v-7.5h1.6v1c0.5-0.6,1.5-1.2,2.6-1.2
			c1.6,0,2.4,0.9,2.4,2.4v5.3H85.9z"/>
				<path class="st9" d="M94.9,136.2v-1c-0.6,0.7-1.4,1.2-2.4,1.2c-1.9,0-3.3-1.5-3.3-3.9c0-2.4,1.4-3.9,3.3-3.9
			c0.9,0,1.8,0.4,2.4,1.2v-3.9h1.6v10.4H94.9z M94.9,134v-3c-0.4-0.6-1.2-1-1.9-1c-1.3,0-2.1,1-2.1,2.5c0,1.4,0.8,2.5,2.1,2.5
			C93.7,135,94.5,134.5,94.9,134z"/>
			</g>
		</g>
</symbol>
	<symbol  viewBox="0 0 128 128" id="bank">
		<style type="text/css">
			.st01{fill:url(#SVGID_11_);}
			.st11{fill:url(#SVGID_21_);}
			.st21{fill:url(#SVGID_31_);}
			.st31{fill:url(#SVGID_41_);}
		</style>
		<g>
			<linearGradient id="SVGID_11_" gradientUnits="userSpaceOnUse" x1="33.6126" y1="71.585" x2="97.6126" y2="71.585">
				<stop  offset="0" style="stop-color:#C424FF"/>
				<stop  offset="0.1157" style="stop-color:#BB28FF"/>
				<stop  offset="0.3083" style="stop-color:#A133FF"/>
				<stop  offset="0.5539" style="stop-color:#7844FF"/>
				<stop  offset="0.84" style="stop-color:#3F5DFF"/>
				<stop  offset="0.9944" style="stop-color:#1D6BFF"/>
			</linearGradient>
			<path class="st01" d="M33.7,60.8c0.2,0.1,0.3,0.2,0.5,0.3c6.1,3.5,12.3,7.1,18.4,10.6c0,0,0.1,0.1,0.1,0.1c0.2,0.2,0.4,0.1,0.6,0
				c0.9-0.5,1.7-1,2.6-1.5C68.5,63,81.1,55.8,93.6,48.5c0.1-0.1,0.3-0.2,0.4-0.2c1,1,3,7.4,3.3,10.6c0.9,7.9-0.8,15.3-5.3,21.9
				c-8.8,13-25.6,17.6-39.7,11.2C37.8,85.3,32.8,71,33.7,60.8z"/>
			<linearGradient id="SVGID_21_" gradientUnits="userSpaceOnUse" x1="34.2053" y1="55.0891" x2="92.2608" y2="55.0891">
				<stop  offset="0" style="stop-color:#C424FF"/>
				<stop  offset="0.1157" style="stop-color:#BB28FF"/>
				<stop  offset="0.3083" style="stop-color:#A133FF"/>
				<stop  offset="0.5539" style="stop-color:#7844FF"/>
				<stop  offset="0.84" style="stop-color:#3F5DFF"/>
				<stop  offset="0.9944" style="stop-color:#1D6BFF"/>
			</linearGradient>
			<path class="st11" d="M90.3,42.4c0.7,0.9,1.3,1.8,2,2.6c0,0.1,0,0.1,0,0.1c0,0,0,0,0,0c0,0-0.1,0.1-0.1,0.1c-13,7.5-26,15-39.1,22.5
				c-6.3-3.6-12.6-7.2-18.8-10.8c0-0.6,0.6-2.9,0.8-3.4c0.1,0.1,0.2,0.1,0.4,0.2c5.7,3.3,11.5,6.6,17.2,9.9c0,0,0.1,0,0.1,0.1
				c0.2,0.2,0.4,0.1,0.6,0c1.3-0.8,2.7-1.6,4.1-2.3c10.8-6.2,21.7-12.5,32.5-18.7C90,42.6,90.1,42.5,90.3,42.4z"/>
			<linearGradient id="SVGID_31_" gradientUnits="userSpaceOnUse" x1="36.2331" y1="48.4918" x2="87.759" y2="48.4918">
				<stop  offset="0" style="stop-color:#C424FF"/>
				<stop  offset="0.1157" style="stop-color:#BB28FF"/>
				<stop  offset="0.3083" style="stop-color:#A133FF"/>
				<stop  offset="0.5539" style="stop-color:#7844FF"/>
				<stop  offset="0.84" style="stop-color:#3F5DFF"/>
				<stop  offset="0.9944" style="stop-color:#1D6BFF"/>
			</linearGradient>
			<path class="st21" d="M36.2,50c0.5-1,1-2,1.5-3c0.2,0.1,0.3,0.2,0.5,0.3c4.7,2.7,9.4,5.4,14.1,8.1c0.8,0.5,0.5,0.5,1.4,0
				c10.3-5.9,20.6-11.9,31-17.8c0.1-0.1,0.2-0.1,0.4-0.2c0.9,0.7,1.8,1.5,2.7,2.3c-0.1,0.1-0.3,0.2-0.4,0.2c-7.9,4.5-15.7,9-23.6,13.6
				c-3.4,2-6.9,4-10.3,5.9c-0.3,0.2-0.5,0.2-0.8,0c-5.3-3.1-10.7-6.1-16-9.2C36.5,50.2,36.4,50.1,36.2,50z"/>
			<linearGradient id="SVGID_41_" gradientUnits="userSpaceOnUse" x1="39.7424" y1="42.4631" x2="81.6727" y2="42.4631">
				<stop  offset="0" style="stop-color:#C424FF"/>
				<stop  offset="0.1157" style="stop-color:#BB28FF"/>
				<stop  offset="0.3083" style="stop-color:#A133FF"/>
				<stop  offset="0.5539" style="stop-color:#7844FF"/>
				<stop  offset="0.84" style="stop-color:#3F5DFF"/>
				<stop  offset="0.9944" style="stop-color:#1D6BFF"/>
			</linearGradient>
			<path class="st31" d="M81.7,35.2c-0.2,0.1-0.3,0.2-0.4,0.2c-9.3,5.3-18.6,10.7-27.8,16c-0.3,0.2-0.5,0.2-0.8,0
				c-4.1-2.4-8.3-4.8-12.4-7.2c-0.1-0.1-0.3-0.2-0.5-0.3c0.7-0.9,1.4-1.8,2.2-2.7c0.2,0.1,0.3,0.1,0.4,0.2c3.2,1.9,6.5,3.7,9.7,5.6
				c0.2,0.1,0.5,0.3,0.7,0.4c0.2,0.1,0.4,0.1,0.6,0c1.7-1,3.3-1.9,5-2.9c6.5-3.7,12.9-7.4,19.4-11.2c0.2-0.1,0.4-0.2,0.6,0
				c1,0.5,2,1,3.1,1.5C81.5,35,81.6,35.1,81.7,35.2z"/>
		</g>
	</symbol>
	<symbol  viewBox="0 0 128 128" id="bitcoin">
		<style type="text/css">
			.st02{fill:url(#SVGID_12_);}
			.st12{fill:url(#SVGID_22_);}
			.st22{fill:url(#SVGID_32_);}
		</style>
		<g>
			<linearGradient id="SVGID_12_" gradientUnits="userSpaceOnUse" x1="32.444" y1="64.109" x2="96.444" y2="64.109">
				<stop  offset="0" style="stop-color:#C424FF"/>
				<stop  offset="0.1157" style="stop-color:#BB28FF"/>
				<stop  offset="0.3083" style="stop-color:#A133FF"/>
				<stop  offset="0.5539" style="stop-color:#7844FF"/>
				<stop  offset="0.84" style="stop-color:#3F5DFF"/>
				<stop  offset="0.9944" style="stop-color:#1D6BFF"/>
			</linearGradient>
			<path class="st02" d="M64.5,32.1c-16.9-0.1-31.9,13.4-32,31.7c-0.2,17.7,13.8,31.8,31.2,32.3c17.8,0.5,32.7-13.5,32.8-31.8
				C96.5,46.3,82.1,32.1,64.5,32.1z M74.7,65.1c2.7,1.7,3.6,4,2.8,7c-0.5,2-1.3,3.8-3.1,5c-1.1,0.7-2.4,1.1-3.7,1.2
				c-0.5,0-1,0.1-1.4,0.1c-1.3-0.1-2.5-0.2-3.7-0.4c-0.6-0.1-0.8,0.1-0.9,0.6c-0.3,1.5-0.7,2.9-1.1,4.4c-0.1,0.6-0.4,0.7-0.9,0.5
				c-0.7-0.2-1.4-0.4-2.2-0.5c-0.4-0.1-0.5-0.3-0.4-0.7c0.4-1.5,0.7-3,1.1-4.4c0.2-0.6,0-0.8-0.6-0.9c-0.5-0.1-1.1-0.3-1.6-0.4
				c-0.4-0.1-0.6,0-0.7,0.4c-0.4,1.5-0.8,3-1.1,4.5c-0.1,0.6-0.4,0.7-0.9,0.5c-0.6-0.2-1.3-0.4-2-0.5c-0.5-0.1-0.7-0.3-0.6-0.9
				c0.4-1.5,0.7-3,1.1-4.5c0.1-0.5,0-0.7-0.5-0.8c-1.9-0.5-3.8-1-5.8-1.4c-0.5-0.1-0.7-0.3-0.4-0.8c0.4-0.9,0.8-1.7,1.1-2.6
				c0.2-0.6,0.5-0.7,1.1-0.5c0.5,0.2,1.1,0.3,1.6,0.4c1,0.2,1.6-0.1,1.9-1.2c0.6-2.2,1.1-4.3,1.6-6.5c0.7-2.8,1.4-5.7,2.1-8.5
				c0.3-1.3-0.1-2.1-1.3-2.5c-0.7-0.2-1.4-0.4-2.1-0.6c-0.5-0.1-0.6-0.3-0.4-0.7c0.2-0.8,0.4-1.6,0.6-2.5c0.1-0.5,0.3-0.6,0.8-0.5
				c1.9,0.5,3.8,0.9,5.6,1.4c0.6,0.2,0.9,0,1-0.6c0.3-1.4,0.7-2.8,1-4.3c0.1-0.5,0.4-0.7,0.9-0.5c0.7,0.2,1.4,0.4,2.2,0.5
				c0.4,0.1,0.5,0.3,0.4,0.7c-0.4,1.5-0.7,2.9-1.1,4.4c-0.1,0.5,0,0.8,0.5,0.9c0.5,0.1,1.1,0.2,1.6,0.4c0.5,0.2,0.7-0.1,0.8-0.5
				c0.3-1.4,0.7-2.8,1-4.3c0.1-0.5,0.4-0.7,0.9-0.5c0.7,0.2,1.4,0.4,2.1,0.5c0.5,0.1,0.6,0.3,0.5,0.8c-0.4,1.5-0.7,2.9-1.1,4.4
				c-0.2,0.6,0,0.9,0.6,1.1c1.7,0.6,3.2,1.4,4.6,2.6c3.3,2.9,1.8,9-2,10c-0.2,0-0.5,0-0.5,0.3C74.2,65,74.5,65,74.7,65.1z"/>
			<linearGradient id="SVGID_22_" gradientUnits="userSpaceOnUse" x1="59.7624" y1="68.9386" x2="70.6601" y2="68.9386">
				<stop  offset="0" style="stop-color:#C424FF"/>
				<stop  offset="0.1157" style="stop-color:#BB28FF"/>
				<stop  offset="0.3083" style="stop-color:#A133FF"/>
				<stop  offset="0.5539" style="stop-color:#7844FF"/>
				<stop  offset="0.84" style="stop-color:#3F5DFF"/>
				<stop  offset="0.9944" style="stop-color:#1D6BFF"/>
			</linearGradient>
			<path class="st12" d="M67.9,66.3c-1.8-0.9-3.8-1.4-5.8-1.8c-0.4-0.1-0.5,0.1-0.6,0.4c-0.6,2.2-1.1,4.5-1.7,6.7
				c-0.1,0.4,0,0.6,0.4,0.7c1.9,0.5,3.9,1,6.1,1c0.6,0,1.4,0,2.2-0.3c2.2-0.8,2.9-3.6,1.3-5.3C69.2,67.1,68.6,66.7,67.9,66.3z"/>
			<linearGradient id="SVGID_32_" gradientUnits="userSpaceOnUse" x1="62.5568" y1="57.9627" x2="71.7432" y2="57.9627">
				<stop  offset="0" style="stop-color:#C424FF"/>
				<stop  offset="0.1157" style="stop-color:#BB28FF"/>
				<stop  offset="0.3083" style="stop-color:#A133FF"/>
				<stop  offset="0.5539" style="stop-color:#7844FF"/>
				<stop  offset="0.84" style="stop-color:#3F5DFF"/>
				<stop  offset="0.9944" style="stop-color:#1D6BFF"/>
			</linearGradient>
			<path class="st22" d="M70,55.8c-1.6-1-3.4-1.4-5.3-1.8c-0.3-0.1-0.5,0-0.6,0.4c-0.5,2-1,4.1-1.5,6.1c-0.1,0.3,0,0.5,0.3,0.6
				c1.6,0.4,3.2,0.8,5,0.9c0.1,0,0.4-0.1,0.7-0.1c1.6-0.2,2.6-1,3-2.5C72,58,71.4,56.7,70,55.8z"/>
		</g>
	</symbol>
	<symbol viewBox="0 0 128 128" id="gold">
		<style type="text/css">
			.st03{fill:url(#SVGID_13_);}
		</style>
		<linearGradient id="SVGID_13_" gradientUnits="userSpaceOnUse" x1="25.8728" y1="63.9709" x2="102.0032" y2="63.9709">
			<stop  offset="0" style="stop-color:#C424FF"/>
			<stop  offset="0.1157" style="stop-color:#BB28FF"/>
			<stop  offset="0.3083" style="stop-color:#A133FF"/>
			<stop  offset="0.5539" style="stop-color:#7844FF"/>
			<stop  offset="0.84" style="stop-color:#3F5DFF"/>
			<stop  offset="0.9944" style="stop-color:#1D6BFF"/>
		</linearGradient>
		<path class="st03" d="M89.2,52.5c1.7,0,3.2,0,4.8,0c1.2,0,2.1,0.4,2.7,1.4c1.5,2.4,3.1,4.7,4.7,7.1c0.9,1.4,0.8,2.7-0.5,3.8
			C92.5,72.2,84,79.5,75.6,86.9c-0.8,0.7-1.6,1-2.7,1c-6.3,0-12.6,0-18.9,0c-1.2,0-2.2-0.2-3-1.3c-1,1.4-2.4,1.3-3.9,1.3
			c-6.1,0-12.1,0-18.2,0c-2.4,0-3.6-1.6-2.8-3.8c1.2-3.7,2.4-7.3,3.7-10.9c0.3-0.7,0.7-1.4,1.3-2c3.7-3.3,7.4-6.5,11.1-9.8
			c0.2-0.2,0.5-0.4,0.6-0.7c0.3-1.1,1.1-1.8,1.9-2.5c6.5-5.6,12.9-11.3,19.3-16.9c1-0.9,2-1.3,3.4-1.3c4.9,0.1,9.9,0,14.8,0
			c1.2,0,2.1,0.5,2.8,1.5c1.4,2.2,2.9,4.4,4.4,6.6C90.6,49.9,90.6,50.6,89.2,52.5z M45.3,70.1c0.1,0.1,0.1,0.1,0.2,0.1c5,0,10,0,15,0
			c0.5,0,0.6-0.3,0.5-0.7c-0.2-1.5-0.2-3-0.5-4.5c-0.3-1.7,0.2-2.9,1.6-4c6.1-5,12.2-10,18.2-15c0.2-0.1,0.4-0.2,0.6-0.4
			c-0.3-0.2-0.4-0.2-0.5-0.2c-4.1,0-8.3,0-12.4,0c-0.3,0-0.7,0.2-1,0.4c-6.3,5.5-12.6,11-18.8,16.5c-0.2,0.2-0.4,0.4-0.5,0.6
			C46.9,65.3,46.1,67.6,45.3,70.1z M92.5,58c0-0.1,0-0.1-0.1-0.2c-0.3,0-0.6,0-0.9,0c-2.5,0-5,0-7.5,0c-0.8,0-1.3,0.2-1.9,0.7
			c-5.7,5-11.5,10-17.2,15.1c-1.5,1.3-2.9,2.2-5,1.9c-0.5-0.1-0.7,0.2-0.9,0.6c-0.6,2-1.3,3.9-1.9,5.8c-0.1,0.2-0.1,0.4-0.1,0.6
			c5.3,0,10.5,0,15.7,0c-0.2-2-0.3-3.9-0.6-5.8c-0.2-1.3,0.2-2.3,1.3-3.1c4-3.2,7.9-6.5,11.8-9.7C87.7,61.9,90.1,60,92.5,58z
			 M32.2,82.6c3.4,0,6.6,0,9.8,0c1.7,0,3.5,0,5.2,0c0.4,0,0.8,0,0.7-0.6c-0.2-2.1-0.4-4.3-0.7-6.5c-0.3,0-0.6,0-0.9,0
			c-1.6,0-3.2,0-4.7,0c-1.9,0-3-1.6-2.5-3.4c0.1-0.3,0.2-0.6,0.3-0.8c-1.6,1.2-3.1,2.5-4.5,3.8c-0.1,0.1-0.1,0.1-0.1,0.2
			C33.8,77.6,33,80.1,32.2,82.6z"/>
	</symbol>
</svg>


